# This file uses meters as units for non-parametric coordinates.

mtllib Curtains.mtl
g default
v -98.248878 -100.000000 1.836989
v -92.261818 -100.000000 -4.620070
v -89.739044 -100.000000 -16.390364
v -86.610542 -100.000000 -15.996304
v -82.649277 -100.000000 -9.980129
v -85.329788 -100.000000 1.159636
v -82.635483 -100.000000 6.192886
v -77.648926 -100.000000 4.828581
v -76.804214 -100.000000 -0.290675
v -79.549622 -100.000000 -4.451116
v -81.770279 -100.000000 -12.431543
v -78.589500 -100.000000 -14.573073
v -74.827103 -100.000000 -11.993642
v -72.843185 -100.000000 -3.465785
v -72.953888 -100.000000 4.100263
v -71.280304 -100.000000 9.915738
v -67.337013 -100.000000 10.902001
v -64.016312 -100.000000 5.752536
v -67.120651 -100.000000 -2.309819
v -68.515350 -100.000000 -9.700427
v -66.681442 -100.000000 -15.119282
v -98.248878 100.000000 1.836989
v -92.261818 100.000000 -4.620070
v -89.739044 100.000000 -16.390364
v -86.610542 100.000000 -15.996304
v -82.649277 100.000000 -9.980129
v -85.329788 100.000000 1.159636
v -82.635483 100.000000 6.192886
v -77.648926 100.000000 4.828581
v -76.804214 100.000000 -0.290675
v -79.549622 100.000000 -4.451116
v -81.770279 100.000000 -12.431543
v -78.589500 100.000000 -14.573073
v -74.827103 100.000000 -11.993642
v -72.843185 100.000000 -3.465785
v -72.953888 100.000000 4.100263
v -71.280304 100.000000 9.915738
v -67.337013 100.000000 10.902001
v -64.016312 100.000000 5.752536
v -67.120651 100.000000 -2.309819
v -68.515350 100.000000 -9.700427
v -66.681442 100.000000 -15.119282
vt 0.000000 0.000000
vt 0.050000 0.000000
vt 0.100000 0.000000
vt 0.150000 0.000000
vt 0.200000 0.000000
vt 0.250000 0.000000
vt 0.300000 0.000000
vt 0.350000 0.000000
vt 0.400000 0.000000
vt 0.450000 0.000000
vt 0.500000 0.000000
vt 0.550000 0.000000
vt 0.600000 0.000000
vt 0.650000 0.000000
vt 0.700000 0.000000
vt 0.750000 0.000000
vt 0.800000 0.000000
vt 0.850000 0.000000
vt 0.900000 0.000000
vt 0.950000 0.000000
vt 1.000000 0.000000
vt 0.000000 1.000000
vt 0.050000 1.000000
vt 0.100000 1.000000
vt 0.150000 1.000000
vt 0.200000 1.000000
vt 0.250000 1.000000
vt 0.300000 1.000000
vt 0.350000 1.000000
vt 0.400000 1.000000
vt 0.450000 1.000000
vt 0.500000 1.000000
vt 0.550000 1.000000
vt 0.600000 1.000000
vt 0.650000 1.000000
vt 0.700000 1.000000
vt 0.750000 1.000000
vt 0.800000 1.000000
vt 0.850000 1.000000
vt 0.900000 1.000000
vt 0.950000 1.000000
vt 1.000000 1.000000
vn 0.733291 0.000000 0.679915
vn 0.906112 0.000000 0.423038
vn 0.906112 0.000000 0.423038
vn 0.733291 0.000000 0.679915
vn 0.895585 0.000000 0.444891
vn 0.895585 0.000000 0.444891
vn -0.670665 0.000000 0.741760
vn -0.670665 0.000000 0.741760
vn -0.997225 0.000000 0.074447
vn -0.997225 0.000000 0.074447
vn -1.000000 0.000000 0.000853
vn -1.000000 0.000000 0.000853
vn -0.431024 0.000000 0.902340
vn -0.431024 0.000000 0.902340
vn 0.743519 0.000000 0.668715
vn 0.743519 0.000000 0.668715
vn 0.979662 -0.000000 -0.200657
vn 0.979662 -0.000000 -0.200657
vn 0.925564 -0.000000 -0.378590
vn 0.925564 -0.000000 -0.378590
vn 0.995531 0.000000 0.094431
vn 0.995531 0.000000 0.094431
vn -0.062944 0.000000 0.998017
vn -0.062944 0.000000 0.998017
vn -0.888180 0.000000 0.459497
vn -0.888180 0.000000 0.459497
vn -0.993294 0.000000 0.115613
vn -0.993294 0.000000 0.115613
vn -0.993249 0.000000 0.116005
vn -0.993249 0.000000 0.116005
vn -0.771070 0.000000 0.636750
vn -0.771070 0.000000 0.636750
vn 0.497251 0.000000 0.867607
vn 0.497251 0.000000 0.867607
vn 0.999866 0.000000 0.016374
vn 0.999866 0.000000 0.016374
vn 0.960135 -0.000000 -0.279537
vn 0.960135 -0.000000 -0.279537
vn 0.999413 0.000000 0.034268
vn 0.999413 0.000000 0.034268
vn 0.947225 0.000000 0.320571
vn 0.947225 0.000000 0.320571
s 1
g pPlane1
usemtl blinn2SG
f 1/1/1 2/2/2 23/23/3 22/22/4
f 2/2/2 3/3/5 24/24/6 23/23/3
f 3/3/5 4/4/7 25/25/8 24/24/6
f 4/4/7 5/5/9 26/26/10 25/25/8
f 5/5/9 6/6/11 27/27/12 26/26/10
f 6/6/11 7/7/13 28/28/14 27/27/12
f 7/7/13 8/8/15 29/29/16 28/28/14
f 8/8/15 9/9/17 30/30/18 29/29/16
f 9/9/17 10/10/19 31/31/20 30/30/18
f 10/10/19 11/11/21 32/32/22 31/31/20
f 11/11/21 12/12/23 33/33/24 32/32/22
f 12/12/23 13/13/25 34/34/26 33/33/24
f 13/13/25 14/14/27 35/35/28 34/34/26
f 14/14/27 15/15/29 36/36/30 35/35/28
f 15/15/29 16/16/31 37/37/32 36/36/30
f 16/16/31 17/17/33 38/38/34 37/37/32
f 17/17/33 18/18/35 39/39/36 38/38/34
f 18/18/35 19/19/37 40/40/38 39/39/36
f 19/19/37 20/20/39 41/41/40 40/40/38
f 20/20/39 21/21/41 42/42/42 41/41/40
